<svg width="48" height="48" viewBox="0 0 48 48" fill="none" xmlns="http://www.w3.org/2000/svg">
<path d="M13.9621 9C15.3468 9 16.6276 9.10714 17.7977 9.42429C18.9701 9.63643 19.9301 10.0607 20.7817 10.59C21.6355 11.12 22.2748 11.8621 22.6995 12.8164C23.1264 13.77 23.341 14.9379 23.341 16.2086C23.341 17.6936 23.0203 18.9643 22.2748 19.9179C21.6355 20.8736 20.5694 21.72 19.2908 22.3564C21.1025 22.8879 22.4872 23.8414 23.341 25.1121C24.1948 26.3829 24.7257 27.975 24.7257 29.7771C24.7257 31.2621 24.405 32.5328 23.8719 33.5936C23.341 34.6543 22.4872 35.6078 21.5272 36.2443C20.4839 36.9257 19.3313 37.4271 18.1185 37.7271C16.8399 38.0464 15.5614 38.2586 14.2828 38.2586H0V9H13.9621ZM13.1083 20.8714C14.2807 20.8714 15.2407 20.5543 15.9861 20.025C16.7316 19.4957 17.0523 18.54 17.0523 17.3743C17.0523 16.7379 16.9439 16.1014 16.7316 15.6793C16.5192 15.2571 16.1985 14.9357 15.7737 14.6186C15.3395 14.3774 14.8724 14.1991 14.3869 14.0893C13.8538 13.9821 13.3228 13.9821 12.6814 13.9821H6.50106V20.8736L13.1083 20.8714ZM13.429 33.3814C14.0683 33.3814 14.7076 33.2743 15.2407 33.1693C15.7737 33.0621 16.3068 32.8521 16.7316 32.5328C17.1641 32.2208 17.527 31.8239 17.7977 31.3671C18.0101 30.8378 18.2246 30.2014 18.2246 29.46C18.2246 27.975 17.7977 26.9143 16.9461 26.1728C16.0923 25.5364 14.9199 25.2193 13.5352 25.2193H6.50106V33.3836L13.429 33.3814ZM33.9984 33.2743C34.8508 34.1228 36.1293 34.5471 37.834 34.5471C39.0064 34.5471 40.0726 34.23 40.9242 33.7007C41.778 33.0636 42.3111 32.4271 42.5235 31.7914H47.746C46.8922 34.335 45.6136 36.1371 43.9103 37.3028C42.2027 38.3636 40.1787 39 37.7278 39C36.1599 39.0023 34.6054 38.7145 33.1446 38.1514C31.8295 37.6664 30.6572 36.8651 29.7337 35.82C28.7419 34.8457 28.01 33.6434 27.6035 32.3207C27.0704 30.9428 26.8559 29.46 26.8559 27.7628C26.8559 26.1729 27.0704 24.69 27.6035 23.31C28.1149 21.9806 28.8742 20.7579 29.842 19.7057C30.7999 18.7521 31.9722 17.9057 33.2508 17.3743C34.674 16.8092 36.1942 16.5211 37.7278 16.5257C39.5395 16.5257 41.1387 16.845 42.5235 17.5864C43.9103 18.3279 44.9744 19.1764 45.826 20.4493C46.6798 21.615 47.3212 22.9929 47.746 24.4778C47.9583 25.9607 48.0645 27.4457 47.9583 29.1407H32.5053C32.5053 30.8378 33.1446 32.4278 33.9984 33.2764M40.7118 22.1464C39.9664 21.405 38.794 20.9807 37.4071 20.9807C36.5939 20.9687 35.7897 21.1502 35.0624 21.51C34.4231 21.8293 33.9984 22.2536 33.5715 22.6779C33.1767 23.086 32.9168 23.6031 32.826 24.1607C32.7177 24.6921 32.6115 25.1143 32.6115 25.5386H42.2027C41.9904 23.9486 41.4573 22.89 40.7118 22.1464ZM31.333 11.0143H43.2689V13.8771H31.3351L31.333 11.0143Z" fill="white"/>
</svg>
