<svg width="54" height="34" viewBox="0 0 54 34" fill="none" xmlns="http://www.w3.org/2000/svg">
<path d="M15.7074 0C17.2652 0 18.706 0.121428 20.0225 0.480857C21.3414 0.721285 22.4214 1.20214 23.3794 1.802C24.34 2.40267 25.0592 3.24376 25.537 4.32528C26.0173 5.406 26.2586 6.72957 26.2586 8.16971C26.2586 9.85271 25.8978 11.2929 25.0592 12.3736C24.34 13.4567 23.1405 14.416 21.7022 15.1373C23.7403 15.7396 25.2981 16.8203 26.2586 18.2604C27.2191 19.7006 27.8164 21.505 27.8164 23.5474C27.8164 25.2304 27.4556 26.6706 26.8559 27.8727C26.2586 29.0748 25.2981 30.1556 24.2181 30.8768C23.0444 31.6491 21.7478 32.2173 20.3833 32.5574C18.9449 32.9193 17.5065 33.1597 16.0682 33.1597H0V0H15.7074ZM14.7468 13.4543C16.0658 13.4543 17.1457 13.0949 17.9844 12.495C18.823 11.8951 19.1838 10.812 19.1838 9.49085C19.1838 8.76957 19.0619 8.04828 18.823 7.56985C18.5841 7.09143 18.2233 6.72714 17.7455 6.36771C17.2569 6.09436 16.7314 5.89235 16.1852 5.76785C15.5855 5.64643 14.9882 5.64643 14.2666 5.64643H7.3137V13.4567L14.7468 13.4543ZM15.1077 27.6323C15.8268 27.6323 16.546 27.5108 17.1457 27.3918C17.7455 27.2704 18.3452 27.0324 18.823 26.6706C19.3096 26.3169 19.7179 25.8671 20.0225 25.3494C20.2614 24.7496 20.5027 24.0283 20.5027 23.188C20.5027 21.505 20.0225 20.3028 19.0644 19.4626C18.1038 18.7413 16.7849 18.3818 15.2271 18.3818H7.3137V27.6347L15.1077 27.6323ZM38.2482 27.5108C39.2071 28.4726 40.6455 28.9534 42.5633 28.9534C43.8822 28.9534 45.0816 28.594 46.0397 27.9941C47.0002 27.272 47.6 26.5507 47.8389 25.8303H53.7142C52.7537 28.713 51.3153 30.7554 49.3991 32.0766C47.4781 33.2787 45.2011 34 42.4438 34C40.6799 34.0026 38.9311 33.6764 37.2877 33.0383C35.8082 32.4886 34.4894 31.5805 33.4504 30.396C32.3346 29.2918 31.5112 27.9292 31.054 26.4301C30.4542 24.8686 30.2129 23.188 30.2129 21.2646C30.2129 19.4626 30.4542 17.782 31.054 16.218C31.6292 14.7113 32.4835 13.3256 33.5723 12.1331C34.6499 11.0524 35.9688 10.0931 37.4071 9.49085C39.0083 8.85045 40.7184 8.52391 42.4438 8.52914C44.4819 8.52914 46.2811 8.891 47.8389 9.73128C49.3991 10.5716 50.5961 11.5333 51.5542 12.9759C52.5148 14.297 53.2364 15.8586 53.7142 17.5416C53.9531 19.2221 54.0726 20.9051 53.9531 22.8261H36.5685C36.5685 24.7496 37.2877 26.5516 38.2482 27.5133M45.8008 14.8993C44.9622 14.059 43.6433 13.5781 42.083 13.5781C41.1682 13.5645 40.2635 13.7702 39.4452 14.178C38.726 14.5399 38.2482 15.0207 37.7679 15.5016C37.3238 15.9641 37.0314 16.5502 36.9293 17.1821C36.8074 17.7844 36.6879 18.2628 36.6879 18.7437H47.4781C47.2392 16.9417 46.6394 15.742 45.8008 14.8993ZM35.2496 2.28286H48.6775V5.52743H35.252L35.2496 2.28286Z" fill="white"/>
</svg>
