<svg width="20" height="20" viewBox="0 0 20 20" fill="none" xmlns="http://www.w3.org/2000/svg">
<path d="M15.8937 4.10752C15.1223 3.33022 14.2044 2.71361 13.1931 2.29336C12.1818 1.87311 11.0972 1.65756 10.0021 1.65919C8.90667 1.65734 7.82177 1.87278 6.81017 2.29304C5.79858 2.71329 4.88039 3.33002 4.10875 4.10752C0.859583 7.35586 0.859583 12.6434 4.10875 15.8925C4.88049 16.6701 5.79881 17.2869 6.81056 17.7072C7.8223 18.1274 8.90736 18.3428 10.0029 18.3409C11.098 18.3426 12.1825 18.1272 13.1938 17.7071C14.2051 17.287 15.1231 16.6705 15.8946 15.8934C19.1438 12.645 19.1437 7.35752 15.8937 4.10752ZM10.1521 3.33336H9.85292C9.90375 3.33252 9.95208 3.32586 10.0029 3.32586C10.0537 3.32586 10.1012 3.33252 10.1521 3.33336ZM15.2038 14.1667H13.3346L12.2862 16.2634C11.5547 16.5328 10.7816 16.6718 10.0021 16.6742C9.22108 16.6721 8.44653 16.5327 7.71375 16.2625L6.66792 14.175H4.80542C4.11828 13.3208 3.65359 12.3095 3.45292 11.2317L5.00125 9.16669L3.98792 7.13919C4.31217 6.45188 4.75156 5.82507 5.28708 5.28586C6.03786 4.53273 6.95791 3.97013 7.97042 3.64502L10.0012 5.00003L12.0329 3.64586C13.0453 3.97072 13.9654 4.53303 14.7163 5.28586C15.2512 5.82439 15.6903 6.45033 16.0146 7.13669L15.0012 9.16669L16.5496 11.2317C16.3499 12.306 15.8876 13.3143 15.2038 14.1667Z" fill="#F70548"/>
<path d="M7.08203 9.16665L8.33203 12.5H11.6654L12.9154 9.16665L9.9987 7.08331L7.08203 9.16665Z" fill="#F70548"/>
</svg>
