<svg width="20" height="20" viewBox="0 0 20 20" fill="none" xmlns="http://www.w3.org/2000/svg">
<path d="M9.99724 4.99999C9.85096 4.99999 9.70726 5.0385 9.58058 5.11164C9.45391 5.18478 9.34871 5.28998 9.27557 5.41666C9.16428 5.6065 8.98242 5.74461 8.76967 5.80086C8.55692 5.8571 8.33057 5.82692 8.13999 5.71689C7.94942 5.60686 7.81011 5.42591 7.75245 5.21354C7.69479 5.00118 7.72347 4.77462 7.83224 4.58332C8.01036 4.27564 8.25206 4.00949 8.54121 3.80263C8.83035 3.59577 9.16029 3.45296 9.509 3.38373C9.85772 3.3145 10.2172 3.32045 10.5634 3.40116C10.9097 3.48188 11.2347 3.63552 11.5169 3.85182C11.799 4.06812 12.0318 4.34212 12.1996 4.65552C12.3675 4.96892 12.4666 5.31451 12.4903 5.66924C12.514 6.02397 12.4617 6.37968 12.337 6.71262C12.2124 7.04556 12.0181 7.34808 11.7672 7.59999L11.5572 7.80666C11.3759 7.97341 11.2071 8.15335 11.0522 8.34499C10.8722 8.57499 10.8306 8.71666 10.8306 8.81166C10.8306 8.98499 10.9256 9.14499 11.0772 9.22832L17.2289 12.6467C17.6443 12.8775 17.9713 13.2397 18.1585 13.6764C18.3458 14.1131 18.3827 14.5997 18.2635 15.0597C18.1443 15.5197 17.8757 15.9271 17.4999 16.2179C17.1242 16.5088 16.6624 16.6666 16.1872 16.6667H3.81057C3.33524 16.667 2.87325 16.5094 2.49718 16.2187C2.12111 15.928 1.85226 15.5206 1.73285 15.0605C1.61344 14.6004 1.65024 14.1137 1.83746 13.6768C2.02469 13.2399 2.35174 12.8775 2.76724 12.6467L7.09391 10.2383C7.18955 10.1851 7.29474 10.1513 7.40346 10.1388C7.51217 10.1262 7.6223 10.1352 7.72754 10.1653C7.83278 10.1953 7.93107 10.2458 8.01681 10.3138C8.10255 10.3818 8.17405 10.466 8.22724 10.5617C8.28042 10.6573 8.31425 10.7625 8.32678 10.8712C8.33932 10.9799 8.33032 11.09 8.30029 11.1953C8.27027 11.3005 8.21981 11.3988 8.1518 11.4846C8.08379 11.5703 7.99955 11.6418 7.90391 11.695L3.57891 14.1033C3.48609 14.1548 3.41302 14.2357 3.37121 14.3332C3.3294 14.4307 3.32121 14.5394 3.34793 14.6421C3.37466 14.7448 3.43478 14.8357 3.51884 14.9005C3.6029 14.9653 3.70611 15.0003 3.81224 15H16.1872C16.2934 15.0003 16.3966 14.9653 16.4806 14.9005C16.5647 14.8357 16.6248 14.7448 16.6515 14.6421C16.6783 14.5394 16.6701 14.4307 16.6283 14.3332C16.5865 14.2357 16.5134 14.1548 16.4206 14.1033L10.2656 10.6867C9.93215 10.5001 9.65448 10.228 9.46114 9.89842C9.2678 9.56887 9.16578 9.19374 9.16557 8.81166C9.16557 8.18166 9.45724 7.67999 9.74057 7.31832C9.95724 7.03999 10.2306 6.77332 10.4422 6.56666L10.5889 6.42166C10.7052 6.30502 10.7843 6.15655 10.8162 5.99498C10.8482 5.83342 10.8315 5.66601 10.7684 5.5139C10.7053 5.36179 10.5985 5.23179 10.4615 5.14033C10.3246 5.04886 10.1619 5.00003 9.99724 4.99999Z" fill="#F70548"/>
</svg>
