<svg width="56" height="56" viewBox="0 0 56 56" fill="none" xmlns="http://www.w3.org/2000/svg">
<g filter="url(#filter0_di_820_294)">
<path d="M17.92 0H38.08C45.76 0 52 6.24 52 13.92V34.08C52 37.7718 50.5334 41.3124 47.9229 43.9229C45.3124 46.5334 41.7718 48 38.08 48H17.92C10.24 48 4 41.76 4 34.08V13.92C4 10.2282 5.46657 6.68758 8.07707 4.07707C10.6876 1.46657 14.2282 0 17.92 0ZM17.44 4.8C15.1485 4.8 12.9509 5.71028 11.3306 7.3306C9.71028 8.95091 8.8 11.1485 8.8 13.44V34.56C8.8 39.336 12.664 43.2 17.44 43.2H38.56C40.8515 43.2 43.0491 42.2897 44.6694 40.6694C46.2897 39.0491 47.2 36.8515 47.2 34.56V13.44C47.2 8.664 43.336 4.8 38.56 4.8H17.44ZM40.6 8.4C41.3957 8.4 42.1587 8.71607 42.7213 9.27868C43.2839 9.84129 43.6 10.6044 43.6 11.4C43.6 12.1957 43.2839 12.9587 42.7213 13.5213C42.1587 14.0839 41.3957 14.4 40.6 14.4C39.8044 14.4 39.0413 14.0839 38.4787 13.5213C37.9161 12.9587 37.6 12.1957 37.6 11.4C37.6 10.6044 37.9161 9.84129 38.4787 9.27868C39.0413 8.71607 39.8044 8.4 40.6 8.4ZM28 12C31.1826 12 34.2348 13.2643 36.4853 15.5147C38.7357 17.7652 40 20.8174 40 24C40 27.1826 38.7357 30.2348 36.4853 32.4853C34.2348 34.7357 31.1826 36 28 36C24.8174 36 21.7652 34.7357 19.5147 32.4853C17.2643 30.2348 16 27.1826 16 24C16 20.8174 17.2643 17.7652 19.5147 15.5147C21.7652 13.2643 24.8174 12 28 12ZM28 16.8C26.0904 16.8 24.2591 17.5586 22.9088 18.9088C21.5586 20.2591 20.8 22.0904 20.8 24C20.8 25.9096 21.5586 27.7409 22.9088 29.0912C24.2591 30.4414 26.0904 31.2 28 31.2C29.9096 31.2 31.7409 30.4414 33.0912 29.0912C34.4414 27.7409 35.2 25.9096 35.2 24C35.2 22.0904 34.4414 20.2591 33.0912 18.9088C31.7409 17.5586 29.9096 16.8 28 16.8Z" fill="white"/>
</g>
<defs>
<filter id="filter0_di_820_294" x="0" y="0" width="56" height="56" filterUnits="userSpaceOnUse" color-interpolation-filters="sRGB">
<feFlood flood-opacity="0" result="BackgroundImageFix"/>
<feColorMatrix in="SourceAlpha" type="matrix" values="0 0 0 0 0 0 0 0 0 0 0 0 0 0 0 0 0 0 127 0" result="hardAlpha"/>
<feOffset dy="4"/>
<feGaussianBlur stdDeviation="2"/>
<feComposite in2="hardAlpha" operator="out"/>
<feColorMatrix type="matrix" values="0 0 0 0 0 0 0 0 0 0 0 0 0 0 0 0 0 0 0.05 0"/>
<feBlend mode="normal" in2="BackgroundImageFix" result="effect1_dropShadow_820_294"/>
<feBlend mode="normal" in="SourceGraphic" in2="effect1_dropShadow_820_294" result="shape"/>
<feColorMatrix in="SourceAlpha" type="matrix" values="0 0 0 0 0 0 0 0 0 0 0 0 0 0 0 0 0 0 127 0" result="hardAlpha"/>
<feOffset dy="4"/>
<feGaussianBlur stdDeviation="2"/>
<feComposite in2="hardAlpha" operator="arithmetic" k2="-1" k3="1"/>
<feColorMatrix type="matrix" values="0 0 0 0 0.944624 0 0 0 0 0.873926 0 0 0 0 0.83026 0 0 0 1 0"/>
<feBlend mode="normal" in2="shape" result="effect2_innerShadow_820_294"/>
</filter>
</defs>
</svg>
