<svg width="20" height="20" viewBox="0 0 20 20" fill="none" xmlns="http://www.w3.org/2000/svg">
<path d="M16.3738 12.9466H3.6288M16.3738 12.9466V6.66665C16.3738 5.09498 16.3738 4.30998 15.8855 3.82165C15.398 3.33331 14.6121 3.33331 13.0405 3.33331H6.96214C5.39047 3.33331 4.60547 3.33331 4.11714 3.82165C3.6288 4.30998 3.6288 5.09498 3.6288 6.66665V12.9466M16.3738 12.9466L17.8271 14.4466L17.9005 14.5233C18.1678 14.817 18.3214 15.1964 18.3338 15.5933L18.3346 15.6991C18.3346 15.8241 18.3346 15.8858 18.3313 15.9383C18.3057 16.3432 18.1333 16.7249 17.8465 17.0118C17.5596 17.2987 17.1779 17.4711 16.773 17.4966C16.6933 17.5 16.6135 17.5012 16.5338 17.5H3.4688C3.3438 17.5 3.28214 17.5 3.22964 17.4966C2.82472 17.4711 2.44303 17.2987 2.15615 17.0118C1.86926 16.7249 1.69687 16.3432 1.6713 15.9383C1.66797 15.8858 1.66797 15.8233 1.66797 15.7L1.6688 15.5941C1.68117 15.1972 1.83484 14.8178 2.10214 14.5241L2.17547 14.4475L3.6288 12.9466" stroke="#F70548" stroke-width="1.25" stroke-linecap="round"/>
<path opacity="0.5" d="M7.91797 15.4166H12.0846" stroke="#F70548" stroke-width="1.25" stroke-linecap="round"/>
<path opacity="0.5" d="M10.625 5.625C10.625 5.79076 10.5592 5.94973 10.4419 6.06694C10.3247 6.18415 10.1658 6.25 10 6.25C9.83424 6.25 9.67527 6.18415 9.55806 6.06694C9.44085 5.94973 9.375 5.79076 9.375 5.625C9.375 5.45924 9.44085 5.30027 9.55806 5.18306C9.67527 5.06585 9.83424 5 10 5C10.1658 5 10.3247 5.06585 10.4419 5.18306C10.5592 5.30027 10.625 5.45924 10.625 5.625Z" fill="#F70548"/>
</svg>
